# xmcd
#
# Track frame offsets: 
#        150
#        14199
#        30226
#        43263
#        55284
#        67667
#        76805
#        90615
#        105664
#        113794
#        124605
#        135580
#        148109
#        162432
#
# Disc length: 2304 seconds
#
# Revision: 3
# Processed by: cddbd v1.5.2PL0 Copyright (c) Steve Scherf et al.
# Submitted via: ExactAudioCopy v0.99pb5
#
DISCID=b708fe0e
DTITLE=Crystal Gayle - All My Tomorrows
DYEAR=2003
DGENRE=Country
TTITLE0=Crystal Gayle - You Belong To Me
TTITLE1=Crystal Gayle - Cry Me A River
TTITLE2=Crystal Gayle - You Made Me Love You
TTITLE3=Crystal Gayle - Falling In Love Again
TTITLE4=Crystal Gayle - All My Tomorrows
TTITLE5=Crystal Gayle - Goody Goody
TTITLE6=Crystal Gayle - What'll I Do
TTITLE7=Crystal Gayle - Sentimental Journey
TTITLE8=Crystal Gayle - I'm Beginning To See The Light
TTITLE9=Crystal Gayle - It Had To Be You
TTITLE10=Crystal Gayle - More Than You Know
TTITLE11=Crystal Gayle - Smile
TTITLE12=Crystal Gayle - Hallelujah I Love Him
TTITLE13=Crystal Gayle - For All We Know
EXTD=
EXTT0=
EXTT1=
EXTT2=
EXTT3=
EXTT4=
EXTT5=
EXTT6=
EXTT7=
EXTT8=
EXTT9=
EXTT10=
EXTT11=
EXTT12=
EXTT13=
PLAYORDER=
